<svg class="form-companion-mascot" viewBox="0 0 900 720" role="img" aria-label="Jelly blob mascot, neutral" style="display: block; overflow: visible; cursor: pointer;"><defs><radialGradient id="_r_0_-bodyFill" cx="345" cy="192" r="520" gradientUnits="userSpaceOnUse"><stop offset="0" stop-color="var(--jelly-body-top, #f2c9ff)"></stop><stop offset="0.32" stop-color="var(--jelly-body-mid, #cb84f5)"></stop><stop offset="0.67" stop-color="var(--jelly-body-deep, #9f5ce6)"></stop><stop offset="1" stop-color="var(--jelly-body-rim, #dd9dff)"></stop></radialGradient><linearGradient id="_r_0_-bodyEdge" x1="215" y1="150" x2="735" y2="600" gradientUnits="userSpaceOnUse"><stop offset="0" stop-color="var(--jelly-outline-light, #b66af0)"></stop><stop offset="0.55" stop-color="var(--jelly-outline, #8d52de)"></stop><stop offset="1" stop-color="var(--jelly-outline-light, #ad62ea)"></stop></linearGradient><radialGradient id="_r_0_-armFill" cx="0.45" cy="0.25" r="0.8"><stop offset="0" stop-color="var(--jelly-arm-light, #e6b1ff)"></stop><stop offset="0.55" stop-color="var(--jelly-arm-mid, #c07eef)"></stop><stop offset="1" stop-color="var(--jelly-arm-deep, #9758e0)"></stop></radialGradient><radialGradient id="_r_0_-cheekFill" cx="0.34" cy="0.28" r="0.78"><stop offset="0" stop-color="var(--jelly-cheek-light, #ffd9ec)"></stop><stop offset="0.6" stop-color="var(--jelly-cheek, #f9a9d4)"></stop><stop offset="1" stop-color="var(--jelly-cheek-deep, #ee97c6)"></stop></radialGradient><radialGradient id="_r_0_-eyeFill" cx="0.34" cy="0.24" r="0.8"><stop offset="0" stop-color="var(--jelly-eye-light, #37204b)"></stop><stop offset="0.55" stop-color="var(--jelly-eye, #170d25)"></stop><stop offset="1" stop-color="var(--jelly-eye-deep, #0d0715)"></stop></radialGradient><radialGradient id="_r_0_-shadowFill" cx="0.5" cy="0.5" r="0.5"><stop offset="0" stop-color="var(--jelly-shadow, var(--jelly-outline, #9e57df))" stop-opacity="0.38"></stop><stop offset="0.58" stop-color="var(--jelly-shadow-light, var(--jelly-outline-light, #b46df0))" stop-opacity="0.17"></stop><stop offset="1" stop-color="var(--jelly-shadow-light, var(--jelly-outline-light, #b46df0))" stop-opacity="0"></stop></radialGradient><radialGradient id="_r_0_-bellyGlow" cx="0.5" cy="0.5" r="0.5"><stop offset="0" stop-color="var(--jelly-belly-glow, #ffbfe3)" stop-opacity="0.5"></stop><stop offset="0.7" stop-color="var(--jelly-belly-glow, #ffbfe3)" stop-opacity="0.22"></stop><stop offset="1" stop-color="var(--jelly-belly-glow, #ffbfe3)" stop-opacity="0"></stop></radialGradient><clipPath id="_r_0_-bodyClip" clipPathUnits="userSpaceOnUse"><path d="M450 135 C520 137 580 158 618 200 C652 240 672 290 680 345 C686 390 688 425 686 462 C684 505 676 530 658 552 C641 569 627 580 602 583 C578 585 561 578 536 577 C510 576 482 585 450 585 C418 585 390 576 364 577 C339 578 323 585 298 583 C273 580 259 569 242 552 C224 530 216 505 214 462 C212 425 214 390 220 345 C228 290 248 240 282 200 C320 158 380 137 450 135 Z"></path></clipPath><filter id="_r_0_-shadowBlur" x="-40%" y="-80%" width="180%" height="260%"><feGaussianBlur stdDeviation="16"></feGaussianBlur></filter><filter id="_r_0_-softBlur" x="-30%" y="-30%" width="160%" height="160%"><feGaussianBlur stdDeviation="9"></feGaussianBlur></filter><filter id="_r_0_-wideSoftBlur" x="-45%" y="-45%" width="190%" height="190%"><feGaussianBlur stdDeviation="14"></feGaussianBlur></filter><filter id="_r_0_-goo" x="-80%" y="-80%" width="260%" height="260%"><feGaussianBlur in="SourceGraphic" stdDeviation="8" result="blur"></feGaussianBlur><feColorMatrix in="blur" mode="matrix" values="
                1 0 0 0 0
                0 1 0 0 0
                0 0 1 0 0
                0 0 0 20 -10" result="goo"></feColorMatrix><feComposite in="SourceGraphic" in2="goo" operator="atop"></feComposite></filter></defs><g id="bottom-shadow-glow"><ellipse cx="450" cy="600" rx="212" ry="31" opacity="0.46" fill="url(#_r_0_-shadowFill)" filter="url(#_r_0_-shadowBlur)"></ellipse><ellipse cx="450" cy="593" rx="137" ry="15" opacity="0.14" fill="var(--jelly-shadow, var(--jelly-outline, #9855dd))" filter="url(#_r_0_-softBlur)"></ellipse></g><g style="transform-box: fill-box; transform-origin: 50% 50%; transform: none;"><g id="typing-nod" style="transform-box: fill-box; transform-origin: 50% 50%; transform: none;"><g id="arms"><g transform="translate(2 5) rotate(3 229 407)"><g id="left-arm" style="transform-box: fill-box; transform-origin: 50% 50%; transform: none;"><g style="transform-box: fill-box; transform-origin: 50% 50%; transform: translateY(-1.74422px) rotate(-2.81045deg);"><path id="left-arm-base" d="M216 380 C195 380 180 396 180 416 C180 438 195 452 216 452 C237 452 250 438 250 416 C250 396 237 380 216 380 Z" fill="url(#_r_0_-armFill)" stroke="var(--jelly-arm-deep, #9c5de2)" stroke-width="5.5" stroke-linejoin="round"></path><path id="left-arm-inner-shadow" d="M234 396 C214 402 208 428 220 446" fill="none" stroke="var(--jelly-arm-deep, #8d54db)" stroke-width="9" stroke-linecap="round" opacity="0.14" filter="url(#_r_0_-softBlur)"></path><ellipse id="left-arm-small-highlight" cx="196" cy="405" rx="5.6" ry="9" fill="#ffffff" opacity="0.6" transform="rotate(24 196 405)"></ellipse></g></g></g><g transform="translate(-2 -2) rotate(-5 671 407)"><g id="right-arm" style="transform-box: fill-box; transform-origin: 50% 50%; transform: none;"><g style="transform-box: fill-box; transform-origin: 50% 50%; transform: translateY(0.49962px) rotate(1.87127deg);"><path id="right-arm-base" d="M684 380 C705 380 720 396 720 416 C720 438 705 452 684 452 C663 452 650 438 650 416 C650 396 663 380 684 380 Z" fill="url(#_r_0_-armFill)" stroke="var(--jelly-arm-deep, #9c5de2)" stroke-width="5.5" stroke-linejoin="round"></path><path id="right-arm-inner-shadow" d="M666 396 C686 402 692 428 680 446" fill="none" stroke="var(--jelly-arm-deep, #8d54db)" stroke-width="9" stroke-linecap="round" opacity="0.14" filter="url(#_r_0_-softBlur)"></path><ellipse id="right-arm-small-highlight" cx="704" cy="405" rx="5.6" ry="9" fill="#ffffff" opacity="0.6" transform="rotate(-24 704 405)"></ellipse></g></g></g></g><g id="body" style="transform-box: fill-box; transform-origin: 50% 50%; transform: none;"><path id="body-main-shape" fill="url(#_r_0_-bodyFill)" stroke="url(#_r_0_-bodyEdge)" stroke-width="5.8" stroke-linejoin="round" d="M450 135 C520 137 580 158 618 200 C652 240 672 290 680 345 C686 390 688 425 686 462 C681.2 505.7 672.2 531.7 653.5 556.2 C636.2 575.7 622.1 588.5 597.9 592.8 C575.0 593.6 558.8 584.6 534.6 580.8 C509.0 577.1 481.2 583.9 449.3 582.9 C416.5 580.7 387.7 570.6 360.6 571.4 C334.5 573.6 317.6 581.9 291.9 583.5 C267.2 584.2 253.9 574.5 237.9 558.3 C221.1 535.9 214.0 509.4 213.3 463.5 C212.0 425.0 214.0 390.0 220.0 345.0 C228.0 290.0 248.0 240.0 282.0 200.0 C320.0 158.0 380.0 137.0 450.0 135.0 Z"></path><g id="body-shading-clipped" clip-path="url(#_r_0_-bodyClip)"><path id="left-inner-shine" d="M300 210C262 300 258 430 286 512" fill="none" stroke="#ffffff" stroke-width="22" stroke-linecap="round" opacity="0.13" filter="url(#_r_0_-wideSoftBlur)"></path><path id="right-inner-shade" d="M672 270C698 360 684 500 616 548" fill="none" stroke="var(--jelly-outline, #7e47cf)" stroke-width="24" stroke-linecap="round" opacity="0.14" filter="url(#_r_0_-wideSoftBlur)"></path><ellipse id="top-soft-sheen" cx="470" cy="175" rx="92" ry="27" fill="#ffffff" opacity="0.14" transform="rotate(1 470 175)" filter="url(#_r_0_-softBlur)"></ellipse><ellipse id="right-body-shine" cx="592" cy="252" rx="16" ry="36" fill="#ffffff" opacity="0.14" transform="rotate(-26 592 252)" filter="url(#_r_0_-softBlur)"></ellipse></g><g id="lower-jelly-belly" style="transform-box: fill-box; transform-origin: 50% 50%; transform: none;"><ellipse id="bottom-belly-glow" cx="450" cy="504" rx="240" ry="62" fill="url(#_r_0_-bellyGlow)" opacity="0.95"></ellipse></g><g><g id="highlights" style="transform-box: fill-box; transform-origin: 50% 50%; transform: none;"><g id="head-gloss" opacity="0.92" style="transform-box: fill-box; transform-origin: 50% 50%; transform: none;"><g id="head-gloss-gaze" style="transform: none; transform-origin: 50% 50%; transform-box: fill-box;"><ellipse id="large-highlight" cx="372" cy="212" rx="37" ry="21" fill="#ffffff" opacity="0.9" transform="rotate(-36 372 212)"></ellipse><g id="small-highlights"><circle id="small-head-highlight" cx="320" cy="268" r="12" fill="#ffffff" opacity="0.86"></circle><circle id="top-dot-highlight" cx="424" cy="172" r="10" fill="#ffffff" opacity="0.84"></circle></g></g></g><ellipse id="left-side-faint-gloss" cx="252" cy="470" rx="17" ry="56" fill="#ffffff" opacity="0.09" transform="rotate(-6 252 470)" filter="url(#_r_0_-softBlur)"></ellipse><ellipse id="right-side-faint-gloss" cx="648" cy="470" rx="17" ry="56" fill="#ffffff" opacity="0.09" transform="rotate(8 648 470)" filter="url(#_r_0_-softBlur)"></ellipse></g></g></g><g id="face" style="transform-box: fill-box; transform-origin: 50% 50%; transform: none;"><g id="left-cheek" opacity="0.76" style="transform-box: fill-box; transform-origin: 50% 50%; transform: none;"><ellipse id="left-cheek-base" cx="309" cy="430" rx="35" ry="23" fill="url(#_r_0_-cheekFill)" opacity="0.6" filter="url(#_r_0_-softBlur)"></ellipse><ellipse id="left-cheek-highlight-large" cx="294" cy="421" rx="6.2" ry="4.2" fill="#ffffff" opacity="0.3" transform="rotate(-20 294 421)"></ellipse><ellipse id="left-cheek-highlight-small" cx="319" cy="420" rx="5.8" ry="4" fill="#ffffff" opacity="0.22" transform="rotate(22 319 420)"></ellipse></g><g id="right-cheek" opacity="0.76" style="transform-box: fill-box; transform-origin: 50% 50%; transform: none;"><ellipse id="right-cheek-base" cx="617" cy="430" rx="35" ry="23" fill="url(#_r_0_-cheekFill)" opacity="0.6" filter="url(#_r_0_-softBlur)"></ellipse><ellipse id="right-cheek-highlight-large" cx="602" cy="421" rx="6.2" ry="4.2" fill="#ffffff" opacity="0.3" transform="rotate(-20 602 421)"></ellipse><ellipse id="right-cheek-highlight-small" cx="627" cy="420" rx="5.8" ry="4" fill="#ffffff" opacity="0.22" transform="rotate(22 627 420)"></ellipse></g><g id="eyes" style="transform-box: fill-box; transform-origin: 50% 50%; transform: none;"><g id="left-eye" style="transform-box: fill-box; transform-origin: 50% 50%; transform: none;"><g opacity="1"><g style="transform-box: fill-box; transform-origin: 50% 50%; transform: none;"><g style="transform-box: fill-box; transform-origin: 50% 50%; transform: none;"><ellipse id="left-eye-base" cx="353" cy="371" rx="32" ry="39" fill="url(#_r_0_-eyeFill)"></ellipse><ellipse id="left-eye-lower-shade" cx="353" cy="393" rx="23" ry="12" fill="var(--jelly-eye-light, #2a1640)" opacity="0.3"></ellipse><circle id="left-eye-main-highlight" cx="364" cy="353" r="10.5" fill="#ffffff" opacity="0.96"></circle><path id="left-eye-star" d="M364 340 C366.4 349.4 367.6 350.6 377 353 C367.6 355.4 366.4 356.6 364 366 C361.6 356.6 360.4 355.4 351 353 C360.4 350.6 361.6 349.4 364 340 Z" fill="#ffffff" opacity="0" style="transform-box: fill-box; transform-origin: 50% 50%; transform: scale(0.5);"></path><circle id="left-eye-secondary-highlight" cx="359" cy="347" r="3.2" fill="#ffffff" opacity="0.58"></circle><circle id="left-eye-violet-sparkle" cx="339" cy="391" r="5.8" fill="var(--jelly-eye-sparkle, #bb7bf0)" opacity="0.62"></circle><path id="left-eye-want-twinkle" d="M338 379.5 C339.38461538461536 384.9230769230769 340.0769230769231 385.61538461538464 345.5 387 C340.0769230769231 388.38461538461536 339.38461538461536 389.0769230769231 338 394.5 C336.61538461538464 389.0769230769231 335.9230769230769 388.38461538461536 330.5 387 C335.9230769230769 385.61538461538464 336.61538461538464 384.9230769230769 338 379.5 Z" fill="#ffffff" opacity="0" style="transform-box: fill-box; transform-origin: 50% 50%; transform: scale(0.5);"></path></g></g></g><path id="left-eye-happy-arc" d="M325 380 C341 330 365 330 381 380" fill="none" stroke="url(#_r_0_-eyeFill)" stroke-width="11" stroke-linecap="round" opacity="0" style="transform-box: fill-box; transform-origin: 50% 50%; transform: scaleY(0.4);"></path></g><g id="right-eye" style="transform-box: fill-box; transform-origin: 50% 50%; transform: none;"><g opacity="1"><g style="transform-box: fill-box; transform-origin: 50% 50%; transform: none;"><g style="transform-box: fill-box; transform-origin: 50% 50%; transform: none;"><ellipse id="right-eye-base" cx="551" cy="371" rx="32" ry="39" fill="url(#_r_0_-eyeFill)"></ellipse><ellipse id="right-eye-lower-shade" cx="551" cy="393" rx="23" ry="12" fill="var(--jelly-eye-light, #2a1640)" opacity="0.3"></ellipse><circle id="right-eye-main-highlight" cx="540" cy="353" r="10.5" fill="#ffffff" opacity="0.96"></circle><path id="right-eye-star" d="M540 340 C542.4 349.4 543.6 350.6 553 353 C543.6 355.4 542.4 356.6 540 366 C537.6 356.6 536.4 355.4 527 353 C536.4 350.6 537.6 349.4 540 340 Z" fill="#ffffff" opacity="0" style="transform-box: fill-box; transform-origin: 50% 50%; transform: scale(0.5);"></path><circle id="right-eye-secondary-highlight" cx="545" cy="347" r="3.2" fill="#ffffff" opacity="0.58"></circle><circle id="right-eye-violet-sparkle" cx="565" cy="391" r="5.8" fill="var(--jelly-eye-sparkle, #bb7bf0)" opacity="0.62"></circle><path id="right-eye-want-twinkle" d="M564 379.5 C565.3846153846154 384.9230769230769 566.0769230769231 385.61538461538464 571.5 387 C566.0769230769231 388.38461538461536 565.3846153846154 389.0769230769231 564 394.5 C562.6153846153846 389.0769230769231 561.9230769230769 388.38461538461536 556.5 387 C561.9230769230769 385.61538461538464 562.6153846153846 384.9230769230769 564 379.5 Z" fill="#ffffff" opacity="0" style="transform-box: fill-box; transform-origin: 50% 50%; transform: scale(0.5);"></path></g></g></g><path id="right-eye-happy-arc" d="M523 380 C539 330 563 330 579 380" fill="none" stroke="url(#_r_0_-eyeFill)" stroke-width="11" stroke-linecap="round" opacity="0" style="transform-box: fill-box; transform-origin: 50% 50%; transform: scaleY(0.4);"></path></g></g><g id="password-face" pointer-events="none" opacity="0" style="transform-box: fill-box; transform-origin: 50% 50%; transform: none;"><path id="left-password-eye" d="M314 353 C331 365 355 365 372 353" fill="none" stroke="#21102f" stroke-width="12" stroke-linecap="round" stroke-linejoin="round" opacity="0.92"></path><path id="right-password-eye" d="M520 353 C537 365 561 365 578 353" fill="none" stroke="#21102f" stroke-width="12" stroke-linecap="round" stroke-linejoin="round" opacity="0.92"></path><ellipse id="password-dot-mouth" cx="452" cy="397" rx="13" ry="9" fill="#21102f" opacity="0.92"></ellipse></g><g id="side-eye-eyes" pointer-events="none" opacity="0" style="transform-box: fill-box; transform-origin: 50% 50%; transform: none;"><path id="left-side-eye" d="M314 357 C331 337 353 336 372 351" fill="none" stroke="#21102f" stroke-width="11" stroke-linecap="round" opacity="0.92"></path><ellipse id="left-side-eye-blob" cx="373" cy="360" rx="10.5" ry="13.5" fill="#21102f" opacity="0.92" transform="rotate(-16 373 360)"></ellipse><path id="right-side-eye" d="M520 357 C537 337 559 336 578 351" fill="none" stroke="#21102f" stroke-width="11" stroke-linecap="round" opacity="0.92"></path><ellipse id="right-side-eye-blob" cx="579" cy="360" rx="10.5" ry="13.5" fill="#21102f" opacity="0.92" transform="rotate(-16 579 360)"></ellipse></g><g id="hmm-lids" pointer-events="none" opacity="0" style="transform-box: fill-box; transform-origin: 50% 50%; transform: translateY(2px);"><path id="left-hmm-lid" d="M324 345 C342 336 365 337 383 345" fill="none" stroke="#21102f" stroke-width="6.5" stroke-linecap="round" opacity="0.62"></path><path id="right-hmm-lid" d="M521 345 C541 336 564 337 581 345" fill="none" stroke="#21102f" stroke-width="6.5" stroke-linecap="round" opacity="0.62"></path></g><g id="sad-brows" pointer-events="none" opacity="0" style="transform-box: fill-box; transform-origin: 50% 50%; transform: translateY(-2px);"><path id="left-sad-brow" d="M318 342 C342 328 370 324 392 331" fill="none" stroke="#21102f" stroke-width="7" stroke-linecap="round" opacity="0.58"></path><path id="right-sad-brow" d="M512 331 C534 324 562 328 586 342" fill="none" stroke="#21102f" stroke-width="7" stroke-linecap="round" opacity="0.58"></path></g><g id="happy-open-mouth" opacity="0" style="transform-box: fill-box; transform-origin: center center;"><path id="open-mouth-fill" d="M420 402 C440 384 465 384 485 402 C470 446 435 446 420 402 Z" fill="#3a0f24" stroke="none"></path><path id="open-mouth-tongue" d="M438 424 C440 442 465 442 467 424 C462 418 444 418 438 424 Z" fill="var(--jelly-cheek, #ff8fc0)" stroke="none"></path><ellipse id="open-mouth-tongue-shine" cx="452" cy="427" rx="9" ry="3.4" fill="#ffc2dc" opacity="0.7"></ellipse></g><path id="mouth" d="M431 409 C437 429 466 429 473 409" fill="none" stroke="#21102f" stroke-width="8" stroke-linecap="round" stroke-linejoin="round" opacity="1" style="transform-box: fill-box; transform-origin: 50% 50%; transform: none;"></path><path id="mouth-oh" d="M441 410 C447 405 457 405 463 410 C466 417 462 424 452 424 C442 424 438 417 441 410 Z" fill="#21102f" opacity="0" style="transform-box: fill-box; transform-origin: 50% 50%; transform: scaleX(0.72) scaleY(0.35);"></path></g><g id="emotion-fx" opacity="0" style="transform-box: fill-box; transform-origin: 50% 50%; transform: scale(0.9);"><g id="sad-tears" opacity="0"><path d="M332 391 C342 398 353 399 362 395" fill="none" stroke="#bfeeff" stroke-width="6" stroke-linecap="round" opacity="0"></path><path d="M545 391 C555 399 566 399 575 394" fill="none" stroke="#bfeeff" stroke-width="6" stroke-linecap="round" opacity="0"></path></g><g opacity="0" style="transform: none; transform-origin: 50% 50%; transform-box: fill-box;"><path d="M617 286 L639 268 M636 292 L660 287 M630 313 L653 329" stroke="var(--jelly-outline, #813ad6)" stroke-width="9" stroke-linecap="round" opacity="0.86"></path><circle cx="260" cy="306" r="13" fill="var(--jelly-body-rim, #cf8dff)" opacity="0.55"></circle><circle cx="241" cy="292" r="8" fill="var(--jelly-body-rim, #cf8dff)" opacity="0.45"></circle><circle cx="683" cy="304" r="13" fill="var(--jelly-body-rim, #cf8dff)" opacity="0.55"></circle><circle cx="704" cy="290" r="8" fill="var(--jelly-body-rim, #cf8dff)" opacity="0.45"></circle></g></g><g id="happy-decor" style="transform-box: fill-box; transform-origin: center center;"><path id="happy-twinkle" d="M636 302 C638 314 641 317 652 319 C641 321 638 324 636 336 C634 324 631 321 620 319 C631 317 634 314 636 302 Z" fill="#ffe07a" opacity="0" style="transform-box: fill-box; transform-origin: 50% 50%; transform: scale(0.8);"></path></g></g></g></svg>